<svg xmlns="http://www.w3.org/2000/svg" width="27" height="36" viewBox="0 0 27 36">
  <g id="checked_icon" transform="translate(-21 -118)">
    <path id="Icon_awesome-bookmark" data-name="Icon awesome-bookmark" d="M0,36V3.375A3.544,3.544,0,0,1,1.057.922,3.186,3.186,0,0,1,3.375,0h20.25A3.375,3.375,0,0,1,27,3.375V36L13.5,28.125Z" transform="translate(21 118)" fill="#f7b539" opacity="0.87"/>
    <path id="Icon_awesome-check" data-name="Icon awesome-check" d="M3.75,12.648.162,9.06a.552.552,0,0,1,0-.781L.942,7.5a.552.552,0,0,1,.781,0L4.14,9.916,9.317,4.739a.552.552,0,0,1,.781,0l.781.781a.552.552,0,0,1,0,.781L4.53,12.648A.552.552,0,0,1,3.75,12.648Z" transform="translate(29 123.555)" fill="#fff"/>
  </g>
</svg>
